<mxfile host="app.diagrams.net" modified="2022-05-31T09:41:23.981Z" agent="5.0 (Windows NT 10.0; Win64; x64) AppleWebKit/537.36 (KHTML, like Gecko) Chrome/101.0.4951.67 Safari/537.36" etag="NM6KvjunRVy4Msjf65r4" version="18.1.3" type="github">
  <diagram id="NLHJnslsqtEt-0C70n7L" name="Page-1">
    <mxGraphModel dx="827" dy="1634" grid="1" gridSize="10" guides="1" tooltips="1" connect="1" arrows="1" fold="1" page="1" pageScale="1" pageWidth="827" pageHeight="1169" math="0" shadow="0">
      <root>
        <mxCell id="0" />
        <mxCell id="1" parent="0" />
        <mxCell id="nY994wkzzrMlOWbD8Sm_-1" value="" style="whiteSpace=wrap;html=1;aspect=fixed;" vertex="1" parent="1">
          <mxGeometry x="160" y="38" width="530" height="530" as="geometry" />
        </mxCell>
        <mxCell id="nY994wkzzrMlOWbD8Sm_-2" value="user" style="shape=umlActor;verticalLabelPosition=bottom;verticalAlign=top;html=1;outlineConnect=0;" vertex="1" parent="1">
          <mxGeometry x="100" y="269" width="30" height="60" as="geometry" />
        </mxCell>
        <mxCell id="nY994wkzzrMlOWbD8Sm_-3" value="get news" style="ellipse;whiteSpace=wrap;html=1;" vertex="1" parent="1">
          <mxGeometry x="340" y="195" width="80" height="50" as="geometry" />
        </mxCell>
        <mxCell id="nY994wkzzrMlOWbD8Sm_-4" value="open chart" style="ellipse;whiteSpace=wrap;html=1;" vertex="1" parent="1">
          <mxGeometry x="340" y="270" width="80" height="50" as="geometry" />
        </mxCell>
        <mxCell id="nY994wkzzrMlOWbD8Sm_-5" value="&lt;span style=&quot;color: rgba(0, 0, 0, 0); font-family: monospace; font-size: 0px; text-align: start;&quot;&gt;%3CmxGraphModel%3E%3Croot%3E%3CmxCell%20id%3D%220%22%2F%3E%3CmxCell%20id%3D%221%22%20parent%3D%220%22%2F%3E%3CmxCell%20id%3D%222%22%20value%3D%22open%20chart%22%20style%3D%22ellipse%3BwhiteSpace%3Dwrap%3Bhtml%3D1%3B%22%20vertex%3D%221%22%20parent%3D%221%22%3E%3CmxGeometry%20x%3D%22310%22%20y%3D%22270%22%20width%3D%2280%22%20height%3D%2250%22%20as%3D%22geometry%22%2F%3E%3C%2FmxCell%3E%3C%2Froot%3E%3C%2FmxGraphModel%3E&lt;/span&gt;intractive searching" style="ellipse;whiteSpace=wrap;html=1;" vertex="1" parent="1">
          <mxGeometry x="340" y="350" width="80" height="50" as="geometry" />
        </mxCell>
        <mxCell id="nY994wkzzrMlOWbD8Sm_-6" value="trade stocks" style="ellipse;whiteSpace=wrap;html=1;" vertex="1" parent="1">
          <mxGeometry x="270" y="426" width="80" height="50" as="geometry" />
        </mxCell>
        <mxCell id="nY994wkzzrMlOWbD8Sm_-7" value="Finansis" style="text;html=1;strokeColor=none;fillColor=none;align=center;verticalAlign=middle;whiteSpace=wrap;rounded=0;" vertex="1" parent="1">
          <mxGeometry x="395" y="34" width="60" height="30" as="geometry" />
        </mxCell>
        <mxCell id="nY994wkzzrMlOWbD8Sm_-8" value="start back-testing" style="ellipse;whiteSpace=wrap;html=1;" vertex="1" parent="1">
          <mxGeometry x="270" y="128" width="80" height="50" as="geometry" />
        </mxCell>
        <mxCell id="nY994wkzzrMlOWbD8Sm_-14" value="open stock statistics" style="ellipse;whiteSpace=wrap;html=1;" vertex="1" parent="1">
          <mxGeometry x="472" y="223" width="80" height="50" as="geometry" />
        </mxCell>
        <mxCell id="nY994wkzzrMlOWbD8Sm_-15" value="get stock price" style="ellipse;whiteSpace=wrap;html=1;" vertex="1" parent="1">
          <mxGeometry x="474" y="321" width="80" height="50" as="geometry" />
        </mxCell>
        <mxCell id="nY994wkzzrMlOWbD8Sm_-16" value="inractive user&amp;nbsp;management" style="ellipse;whiteSpace=wrap;html=1;" vertex="1" parent="1">
          <mxGeometry x="448" y="113" width="80" height="50" as="geometry" />
        </mxCell>
        <mxCell id="nY994wkzzrMlOWbD8Sm_-17" value="open news details page" style="ellipse;whiteSpace=wrap;html=1;" vertex="1" parent="1">
          <mxGeometry x="445" y="438" width="80" height="50" as="geometry" />
        </mxCell>
        <mxCell id="nY994wkzzrMlOWbD8Sm_-18" value="" style="endArrow=classicThin;dashed=1;html=1;dashPattern=1 3;strokeWidth=2;rounded=0;exitX=0.5;exitY=0.5;exitDx=0;exitDy=0;exitPerimeter=0;entryX=0.038;entryY=0.76;entryDx=0;entryDy=0;entryPerimeter=0;endFill=0;" edge="1" parent="1" source="nY994wkzzrMlOWbD8Sm_-2" target="nY994wkzzrMlOWbD8Sm_-8">
          <mxGeometry width="50" height="50" relative="1" as="geometry">
            <mxPoint x="390" y="350" as="sourcePoint" />
            <mxPoint x="440" y="300" as="targetPoint" />
          </mxGeometry>
        </mxCell>
        <mxCell id="nY994wkzzrMlOWbD8Sm_-19" value="" style="endArrow=classicThin;dashed=1;html=1;dashPattern=1 3;strokeWidth=2;rounded=0;exitX=0.5;exitY=0.5;exitDx=0;exitDy=0;exitPerimeter=0;endFill=0;entryX=0;entryY=0.5;entryDx=0;entryDy=0;" edge="1" parent="1" source="nY994wkzzrMlOWbD8Sm_-2" target="nY994wkzzrMlOWbD8Sm_-16">
          <mxGeometry width="50" height="50" relative="1" as="geometry">
            <mxPoint x="125" y="309" as="sourcePoint" />
            <mxPoint x="283.03999999999996" y="176" as="targetPoint" />
          </mxGeometry>
        </mxCell>
        <mxCell id="nY994wkzzrMlOWbD8Sm_-20" value="" style="endArrow=classicThin;dashed=1;html=1;dashPattern=1 3;strokeWidth=2;rounded=0;exitX=0.5;exitY=0.5;exitDx=0;exitDy=0;exitPerimeter=0;entryX=0;entryY=0.5;entryDx=0;entryDy=0;endFill=0;" edge="1" parent="1" source="nY994wkzzrMlOWbD8Sm_-2" target="nY994wkzzrMlOWbD8Sm_-3">
          <mxGeometry width="50" height="50" relative="1" as="geometry">
            <mxPoint x="125" y="309" as="sourcePoint" />
            <mxPoint x="283.03999999999996" y="176" as="targetPoint" />
          </mxGeometry>
        </mxCell>
        <mxCell id="nY994wkzzrMlOWbD8Sm_-21" value="" style="endArrow=classicThin;dashed=1;html=1;dashPattern=1 3;strokeWidth=2;rounded=0;entryX=0;entryY=0.5;entryDx=0;entryDy=0;endFill=0;" edge="1" parent="1" target="nY994wkzzrMlOWbD8Sm_-14">
          <mxGeometry width="50" height="50" relative="1" as="geometry">
            <mxPoint x="120" y="300" as="sourcePoint" />
            <mxPoint x="283.03999999999996" y="176" as="targetPoint" />
          </mxGeometry>
        </mxCell>
        <mxCell id="nY994wkzzrMlOWbD8Sm_-22" value="" style="endArrow=classicThin;dashed=1;html=1;dashPattern=1 3;strokeWidth=2;rounded=0;exitX=0.5;exitY=0.5;exitDx=0;exitDy=0;exitPerimeter=0;endFill=0;" edge="1" parent="1" source="nY994wkzzrMlOWbD8Sm_-2" target="nY994wkzzrMlOWbD8Sm_-4">
          <mxGeometry width="50" height="50" relative="1" as="geometry">
            <mxPoint x="125" y="309" as="sourcePoint" />
            <mxPoint x="283.03999999999996" y="176" as="targetPoint" />
          </mxGeometry>
        </mxCell>
        <mxCell id="nY994wkzzrMlOWbD8Sm_-23" value="" style="endArrow=classicThin;dashed=1;html=1;dashPattern=1 3;strokeWidth=2;rounded=0;endFill=0;" edge="1" parent="1" target="nY994wkzzrMlOWbD8Sm_-15">
          <mxGeometry width="50" height="50" relative="1" as="geometry">
            <mxPoint x="120" y="300" as="sourcePoint" />
            <mxPoint x="350.01166026079204" y="305.6035975809691" as="targetPoint" />
          </mxGeometry>
        </mxCell>
        <mxCell id="nY994wkzzrMlOWbD8Sm_-24" value="" style="endArrow=classicThin;dashed=1;html=1;dashPattern=1 3;strokeWidth=2;rounded=0;exitX=0.5;exitY=0.5;exitDx=0;exitDy=0;exitPerimeter=0;entryX=0;entryY=0.5;entryDx=0;entryDy=0;endFill=0;" edge="1" parent="1" source="nY994wkzzrMlOWbD8Sm_-2" target="nY994wkzzrMlOWbD8Sm_-5">
          <mxGeometry width="50" height="50" relative="1" as="geometry">
            <mxPoint x="125" y="309" as="sourcePoint" />
            <mxPoint x="283.03999999999996" y="176" as="targetPoint" />
          </mxGeometry>
        </mxCell>
        <mxCell id="nY994wkzzrMlOWbD8Sm_-25" value="" style="endArrow=classicThin;dashed=1;html=1;dashPattern=1 3;strokeWidth=2;rounded=0;exitX=0.5;exitY=0.5;exitDx=0;exitDy=0;exitPerimeter=0;endFill=0;entryX=0;entryY=0.5;entryDx=0;entryDy=0;" edge="1" parent="1" source="nY994wkzzrMlOWbD8Sm_-2" target="nY994wkzzrMlOWbD8Sm_-17">
          <mxGeometry width="50" height="50" relative="1" as="geometry">
            <mxPoint x="125" y="309" as="sourcePoint" />
            <mxPoint x="350" y="385" as="targetPoint" />
          </mxGeometry>
        </mxCell>
        <mxCell id="nY994wkzzrMlOWbD8Sm_-26" value="" style="endArrow=classicThin;dashed=1;html=1;dashPattern=1 3;strokeWidth=2;rounded=0;exitX=0.5;exitY=0.5;exitDx=0;exitDy=0;exitPerimeter=0;entryX=0;entryY=0.5;entryDx=0;entryDy=0;endFill=0;" edge="1" parent="1" source="nY994wkzzrMlOWbD8Sm_-2" target="nY994wkzzrMlOWbD8Sm_-6">
          <mxGeometry width="50" height="50" relative="1" as="geometry">
            <mxPoint x="125" y="309" as="sourcePoint" />
            <mxPoint x="283.03999999999996" y="176" as="targetPoint" />
          </mxGeometry>
        </mxCell>
        <mxCell id="nY994wkzzrMlOWbD8Sm_-27" value="open using window object" style="ellipse;whiteSpace=wrap;html=1;" vertex="1" parent="1">
          <mxGeometry x="580" y="220" width="80" height="50" as="geometry" />
        </mxCell>
        <mxCell id="nY994wkzzrMlOWbD8Sm_-28" value="open using puppeteer" style="ellipse;whiteSpace=wrap;html=1;" vertex="1" parent="1">
          <mxGeometry x="580" y="300" width="80" height="50" as="geometry" />
        </mxCell>
        <mxCell id="nY994wkzzrMlOWbD8Sm_-29" value="" style="endArrow=classic;html=1;rounded=0;exitX=0;exitY=0.5;exitDx=0;exitDy=0;entryX=1;entryY=0.5;entryDx=0;entryDy=0;" edge="1" parent="1" source="nY994wkzzrMlOWbD8Sm_-27" target="nY994wkzzrMlOWbD8Sm_-4">
          <mxGeometry width="50" height="50" relative="1" as="geometry">
            <mxPoint x="390" y="330" as="sourcePoint" />
            <mxPoint x="440" y="280" as="targetPoint" />
            <Array as="points">
              <mxPoint x="550" y="290" />
            </Array>
          </mxGeometry>
        </mxCell>
        <mxCell id="nY994wkzzrMlOWbD8Sm_-30" value="" style="endArrow=none;html=1;rounded=0;entryX=0;entryY=0.5;entryDx=0;entryDy=0;" edge="1" parent="1" target="nY994wkzzrMlOWbD8Sm_-28">
          <mxGeometry width="50" height="50" relative="1" as="geometry">
            <mxPoint x="550" y="290" as="sourcePoint" />
            <mxPoint x="440" y="280" as="targetPoint" />
          </mxGeometry>
        </mxCell>
        <mxCell id="nY994wkzzrMlOWbD8Sm_-31" value="open using window object" style="ellipse;whiteSpace=wrap;html=1;" vertex="1" parent="1">
          <mxGeometry x="590" y="390" width="80" height="50" as="geometry" />
        </mxCell>
        <mxCell id="nY994wkzzrMlOWbD8Sm_-32" value="open using puppeteer" style="ellipse;whiteSpace=wrap;html=1;" vertex="1" parent="1">
          <mxGeometry x="590" y="470" width="80" height="50" as="geometry" />
        </mxCell>
        <mxCell id="nY994wkzzrMlOWbD8Sm_-33" value="" style="endArrow=classic;html=1;rounded=0;exitX=0;exitY=0.5;exitDx=0;exitDy=0;entryX=1;entryY=0.5;entryDx=0;entryDy=0;" edge="1" parent="1" source="nY994wkzzrMlOWbD8Sm_-31">
          <mxGeometry width="50" height="50" relative="1" as="geometry">
            <mxPoint x="400" y="500" as="sourcePoint" />
            <mxPoint x="525" y="463" as="targetPoint" />
            <Array as="points">
              <mxPoint x="560" y="460" />
            </Array>
          </mxGeometry>
        </mxCell>
        <mxCell id="nY994wkzzrMlOWbD8Sm_-34" value="" style="endArrow=none;html=1;rounded=0;entryX=0;entryY=0.5;entryDx=0;entryDy=0;" edge="1" parent="1" target="nY994wkzzrMlOWbD8Sm_-32">
          <mxGeometry width="50" height="50" relative="1" as="geometry">
            <mxPoint x="560" y="460" as="sourcePoint" />
            <mxPoint x="450" y="450" as="targetPoint" />
          </mxGeometry>
        </mxCell>
        <mxCell id="nY994wkzzrMlOWbD8Sm_-35" value="zoom chart" style="ellipse;whiteSpace=wrap;html=1;" vertex="1" parent="1">
          <mxGeometry x="194" y="61" width="80" height="50" as="geometry" />
        </mxCell>
        <mxCell id="nY994wkzzrMlOWbD8Sm_-36" value="" style="endArrow=classicThin;dashed=1;html=1;dashPattern=1 3;strokeWidth=2;rounded=0;exitX=0.5;exitY=0.5;exitDx=0;exitDy=0;exitPerimeter=0;entryX=0;entryY=1;entryDx=0;entryDy=0;endFill=0;" edge="1" parent="1" source="nY994wkzzrMlOWbD8Sm_-2" target="nY994wkzzrMlOWbD8Sm_-35">
          <mxGeometry width="50" height="50" relative="1" as="geometry">
            <mxPoint x="125" y="309" as="sourcePoint" />
            <mxPoint x="283.03999999999996" y="176" as="targetPoint" />
          </mxGeometry>
        </mxCell>
        <mxCell id="nY994wkzzrMlOWbD8Sm_-37" value="validate popup window" style="ellipse;whiteSpace=wrap;html=1;" vertex="1" parent="1">
          <mxGeometry x="335" y="60" width="80" height="50" as="geometry" />
        </mxCell>
        <mxCell id="nY994wkzzrMlOWbD8Sm_-38" value="" style="endArrow=classicThin;dashed=1;html=1;dashPattern=1 3;strokeWidth=2;rounded=0;exitX=1;exitY=0.5;exitDx=0;exitDy=0;entryX=0;entryY=0.5;entryDx=0;entryDy=0;endFill=0;" edge="1" parent="1" source="nY994wkzzrMlOWbD8Sm_-35" target="nY994wkzzrMlOWbD8Sm_-37">
          <mxGeometry width="50" height="50" relative="1" as="geometry">
            <mxPoint x="283.03999999999996" y="126" as="sourcePoint" />
            <mxPoint x="125" y="259" as="targetPoint" />
          </mxGeometry>
        </mxCell>
        <mxCell id="nY994wkzzrMlOWbD8Sm_-39" value="&amp;lt;&amp;lt;include&amp;gt;&amp;gt;" style="text;html=1;strokeColor=none;fillColor=none;align=center;verticalAlign=middle;whiteSpace=wrap;rounded=0;" vertex="1" parent="1">
          <mxGeometry x="272" y="60" width="60" height="30" as="geometry" />
        </mxCell>
        <mxCell id="nY994wkzzrMlOWbD8Sm_-40" value="" style="endArrow=none;dashed=1;html=1;dashPattern=1 3;strokeWidth=2;rounded=0;exitX=0.5;exitY=1;exitDx=0;exitDy=0;" edge="1" parent="1" source="nY994wkzzrMlOWbD8Sm_-39" target="nY994wkzzrMlOWbD8Sm_-41">
          <mxGeometry width="50" height="50" relative="1" as="geometry">
            <mxPoint x="390" y="250" as="sourcePoint" />
            <mxPoint x="300" y="20" as="targetPoint" />
          </mxGeometry>
        </mxCell>
        <mxCell id="nY994wkzzrMlOWbD8Sm_-41" value="if popup window opened using puppeeter and it&#39;s type equal chart, zoom the chart" style="shape=note;whiteSpace=wrap;html=1;backgroundOutline=1;darkOpacity=0.05;" vertex="1" parent="1">
          <mxGeometry x="257" y="-90" width="90" height="110" as="geometry" />
        </mxCell>
        <mxCell id="nY994wkzzrMlOWbD8Sm_-42" value="change chart type" style="ellipse;whiteSpace=wrap;html=1;" vertex="1" parent="1">
          <mxGeometry x="194" y="491" width="80" height="50" as="geometry" />
        </mxCell>
        <mxCell id="nY994wkzzrMlOWbD8Sm_-43" value="validate popup window" style="ellipse;whiteSpace=wrap;html=1;" vertex="1" parent="1">
          <mxGeometry x="336" y="490" width="80" height="50" as="geometry" />
        </mxCell>
        <mxCell id="nY994wkzzrMlOWbD8Sm_-44" value="&amp;lt;&amp;lt;include&amp;gt;&amp;gt;" style="text;html=1;strokeColor=none;fillColor=none;align=center;verticalAlign=middle;whiteSpace=wrap;rounded=0;" vertex="1" parent="1">
          <mxGeometry x="272" y="490" width="60" height="30" as="geometry" />
        </mxCell>
        <mxCell id="nY994wkzzrMlOWbD8Sm_-45" value="" style="endArrow=classicThin;dashed=1;html=1;dashPattern=1 3;strokeWidth=2;rounded=0;exitX=1;exitY=0.5;exitDx=0;exitDy=0;entryX=0;entryY=0.5;entryDx=0;entryDy=0;endFill=0;" edge="1" parent="1">
          <mxGeometry width="50" height="50" relative="1" as="geometry">
            <mxPoint x="274" y="517" as="sourcePoint" />
            <mxPoint x="335.00000000000114" y="516" as="targetPoint" />
          </mxGeometry>
        </mxCell>
        <mxCell id="nY994wkzzrMlOWbD8Sm_-46" value="" style="endArrow=classicThin;dashed=1;html=1;dashPattern=1 3;strokeWidth=2;rounded=0;exitX=0.5;exitY=0.5;exitDx=0;exitDy=0;exitPerimeter=0;entryX=0;entryY=0;entryDx=0;entryDy=0;endFill=0;" edge="1" parent="1" source="nY994wkzzrMlOWbD8Sm_-2" target="nY994wkzzrMlOWbD8Sm_-42">
          <mxGeometry width="50" height="50" relative="1" as="geometry">
            <mxPoint x="125" y="309" as="sourcePoint" />
            <mxPoint x="279.99999999999727" y="461" as="targetPoint" />
          </mxGeometry>
        </mxCell>
        <mxCell id="nY994wkzzrMlOWbD8Sm_-47" value="if popup window opened using puppeeter and it&#39;s type equal chart, change the chart type" style="shape=note;whiteSpace=wrap;html=1;backgroundOutline=1;darkOpacity=0.05;" vertex="1" parent="1">
          <mxGeometry x="247" y="570" width="90" height="110" as="geometry" />
        </mxCell>
        <mxCell id="nY994wkzzrMlOWbD8Sm_-48" value="" style="endArrow=none;dashed=1;html=1;dashPattern=1 3;strokeWidth=2;rounded=0;" edge="1" parent="1">
          <mxGeometry width="50" height="50" relative="1" as="geometry">
            <mxPoint x="292" y="570" as="sourcePoint" />
            <mxPoint x="292" y="519" as="targetPoint" />
          </mxGeometry>
        </mxCell>
      </root>
    </mxGraphModel>
  </diagram>
</mxfile>
